<?xml version="1.0" encoding="UTF-8"?>
<svg width="600mm" height="850mm" viewBox="0 0 600 850" xmlns="http://www.w3.org/2000/svg">
  <style>
    .panel { fill:#f5f7fa; stroke:#1f2d3d; stroke-width:2; }
    .canalina { fill:#e0e6ed; stroke:#9aa5b1; stroke-width:1; }
    .canalina40 { fill:#d9dee7; stroke:#8a94a6; stroke-width:1; }
    .din { stroke:#5c6b7a; stroke-width:3; stroke-dasharray:10 6; }
    .comp-hot { fill:#ffd9c2; stroke:#a64724; stroke-width:1.5; }
    .comp-logic { fill:#d6ffd6; stroke:#2b7a2b; stroke-width:1.5; }
    .comp-driver { fill:#fff2a8; stroke:#a68a24; stroke-width:1.5; }
    .terminal { fill:#ffffff; stroke:#777; stroke-width:1.5; }
    .fuse { fill:#ffe8a6; stroke:#a67300; stroke-width:1.5; }
    .label { font-family:Arial, sans-serif; font-size:10px; fill:#111; }
    .zone-title { font-family:Arial, sans-serif; font-size:12px; font-weight:bold; fill:#333; }
    .line-230 { stroke:#b22222; stroke-width:2.5; stroke-dasharray:4 2; }
    .line-48 { stroke:#ff7f50; stroke-width:2.5; }
    .line-24 { stroke:#1e90ff; stroke-width:2.5; }
    .line-12 { stroke:#6a5acd; stroke-width:2.5; }
    .line-5 { stroke:#2e8b57; stroke-width:2.5; }
    .line-rs232 { stroke:#8b4513; stroke-width:2; stroke-dasharray:3 3; }
    .line-rs485 { stroke:#000000; stroke-width:2; stroke-dasharray:6 3; }
    .arrow path { fill:#666; }
  </style>
  <rect x="1" y="1" width="598" height="848" class="panel"/>
  <text x="300" y="20" text-anchor="middle" class="zone-title">Quadro Blitz - Layout 3 Zone con DIN, Canalette 40x40 e Linee Schematiche (600 x 850 mm)</text>
  <rect x="10" y="40" width="50" height="770" class="canalina40"/>
  <text x="35" y="55" text-anchor="middle" class="label">Canalina SX 40x40</text>
  <rect x="540" y="40" width="50" height="770" class="canalina40"/>
  <text x="565" y="55" text-anchor="middle" class="label">Canalina DX 40x40</text>
  <rect x="70" y="120" width="460" height="30" class="canalina40"/>
  <rect x="70" y="520" width="460" height="30" class="canalina40"/>
  <rect x="70" y="770" width="460" height="25" class="canalina40"/>
  <line x1="80" y1="170" x2="520" y2="170" class="din"/>
  <line x1="80" y1="350" x2="520" y2="350" class="din"/>
  <line x1="80" y1="620" x2="520" y2="620" class="din"/>
  <text x="75" y="105" class="zone-title">ZONA 1: Ingresso rete, Alimentatori e Portafusibili (alto)</text>
  <text x="75" y="505" class="zone-title">ZONA 2: Logica centrale (Moduli I/O + Raspberry a destra)</text>
  <text x="75" y="755" class="zone-title">ZONA 3: Driver + Morsettiere di fianco (basso)</text>
  <rect x="80" y="140" width="95" height="55" class="comp-hot"/>
  <text x="127" y="156" text-anchor="middle" class="label">Sezionatore/MT</text>
  <text x="127" y="171" text-anchor="middle" class="label">Ingresso 230V</text>
  <rect x="185" y="135" width="110" height="65" class="comp-hot"/>
  <text x="240" y="150" text-anchor="middle" class="label">Mean Well TDR-960</text>
  <text x="240" y="165" text-anchor="middle" class="label">48V / 20A (110x125)</text>
  <rect x="305" y="140" width="70" height="60" class="comp-hot"/>
  <text x="340" y="155" text-anchor="middle" class="label">SDR-240-24</text>
  <text x="340" y="170" text-anchor="middle" class="label">24V / 10A</text>
  <rect x="385" y="145" width="50" height="55" class="comp-hot"/>
  <text x="410" y="160" text-anchor="middle" class="label">SDR-120-12</text>
  <text x="410" y="175" text-anchor="middle" class="label">12V / 10A</text>
  <rect x="445" y="150" width="40" height="50" class="comp-hot"/>
  <text x="465" y="165" text-anchor="middle" class="label">MDR-10-5</text>
  <text x="465" y="178" text-anchor="middle" class="label">5V</text>
  <rect x="490" y="150" width="40" height="50" class="comp-hot"/>
  <text x="510" y="165" text-anchor="middle" class="label">Presa 230V</text>
  <text x="510" y="178" text-anchor="middle" class="label">RPi PSU</text>
  <text x="80" y="210" class="label">Portafusibili DIN (protezione rami DC)</text>
  <rect x="180" y="220" width="35" height="45" class="fuse"/>
  <text x="197.5" y="236" text-anchor="middle" class="label">F1</text>
  <text x="197.5" y="250" text-anchor="middle" class="label">24V I/O</text>
  <rect x="220" y="220" width="35" height="45" class="fuse"/>
  <text x="237.5" y="236" text-anchor="middle" class="label">F2</text>
  <text x="237.5" y="250" text-anchor="middle" class="label">24V EV SX</text>
  <rect x="260" y="220" width="35" height="45" class="fuse"/>
  <text x="277.5" y="236" text-anchor="middle" class="label">F3</text>
  <text x="277.5" y="250" text-anchor="middle" class="label">24V EV DX</text>
  <rect x="300" y="220" width="35" height="45" class="fuse"/>
  <text x="317.5" y="236" text-anchor="middle" class="label">F4</text>
  <text x="317.5" y="250" text-anchor="middle" class="label">24V Friz/Fr</text>
  <rect x="340" y="220" width="35" height="45" class="fuse"/>
  <text x="357.5" y="236" text-anchor="middle" class="label">F5</text>
  <text x="357.5" y="250" text-anchor="middle" class="label">5V Servizi</text>
  <rect x="380" y="220" width="35" height="45" class="fuse"/>
  <text x="397.5" y="236" text-anchor="middle" class="label">F6</text>
  <text x="397.5" y="250" text-anchor="middle" class="label">12V Aux</text>
  <rect x="80" y="330" width="175" height="80" class="comp-logic"/>
  <text x="167" y="347" text-anchor="middle" class="label">Modulo I/O + Relè #1</text>
  <text x="167" y="362" text-anchor="middle" class="label">Inclinazioni / Lame</text>
  <text x="167" y="377" text-anchor="middle" class="label">8IN / 8OUT Relay</text>
  <rect x="265" y="330" width="175" height="80" class="comp-logic"/>
  <text x="352" y="347" text-anchor="middle" class="label">Modulo I/O + Relè #2</text>
  <text x="352" y="362" text-anchor="middle" class="label">Morse / Frizione</text>
  <text x="352" y="377" text-anchor="middle" class="label">8IN / 8OUT Relay</text>
  <rect x="450" y="340" width="70" height="60" class="comp-logic"/>
  <text x="485" y="355" text-anchor="middle" class="label">Raspberry Pi 5</text>
  <text x="485" y="370" text-anchor="middle" class="label">+ USB Waveshare</text>
  <rect x="80" y="600" width="230" height="85" class="comp-driver"/>
  <text x="195" y="617" text-anchor="middle" class="label">Leadshine DCS810</text>
  <text x="195" y="632" text-anchor="middle" class="label">48V DC Servo - RS232</text>
  <text x="195" y="647" text-anchor="middle" class="label">151 x 97 x 48.5</text>
  <rect x="320" y="595" width="180" height="95" class="terminal"/>
  <text x="410" y="610" text-anchor="middle" class="label">Morsettiere Campo (2 Livelli)</text>
  <text x="410" y="625" text-anchor="middle" class="label">Sensori, EV, RS485</text>
  <text x="410" y="640" text-anchor="middle" class="label">Motore/Encoder, Pulsantiera</text>
  <rect x="80" y="700" width="420" height="15" class="terminal"/>
  <text x="290" y="711" text-anchor="middle" class="label">Barra PE / Schermi</text>
  <defs>
    <marker id="arrow" class="arrow" viewBox="0 0 10 10" refX="8" refY="5" markerWidth="6" markerHeight="6" orient="auto">
      <path d="M 0 0 L 10 5 L 0 10 z"/>
    </marker>
  </defs>
  <line x1="35" y1="140" x2="80" y2="140" class="line-230" marker-end="url(#arrow)"/>
  <line x1="127" y1="167" x2="185" y2="167" class="line-230" marker-end="url(#arrow)"/>
  <line x1="127" y1="167" x2="305" y2="170" class="line-230" marker-end="url(#arrow)"/>
  <line x1="127" y1="167" x2="385" y2="172" class="line-230" marker-end="url(#arrow)"/>
  <line x1="127" y1="167" x2="445" y2="175" class="line-230" marker-end="url(#arrow)"/>
  <line x1="127" y1="167" x2="490" y2="175" class="line-230" marker-end="url(#arrow)"/>
  <line x1="240" y1="200" x2="195" y2="600" class="line-48" marker-end="url(#arrow)"/>
  <line x1="340" y1="200" x2="340" y2="220" class="line-24" marker-end="url(#arrow)"/>
  <line x1="197.5" y1="265" x2="167" y2="330" class="line-24" marker-end="url(#arrow)"/>
  <line x1="197.5" y1="265" x2="352" y2="330" class="line-24" marker-end="url(#arrow)"/>
  <line x1="237.5" y1="265" x2="350" y2="595" class="line-24" marker-end="url(#arrow)"/>
  <line x1="277.5" y1="265" x2="430" y2="595" class="line-24" marker-end="url(#arrow)"/>
  <line x1="317.5" y1="265" x2="410" y2="595" class="line-24" marker-end="url(#arrow)"/>
  <line x1="410" y1="200" x2="380" y2="595" class="line-12" marker-end="url(#arrow)"/>
  <line x1="465" y1="200" x2="485" y2="340" class="line-5" marker-end="url(#arrow)"/>
  <line x1="465" y1="200" x2="330" y2="595" class="line-5" marker-end="url(#arrow)"/>
  <line x1="485" y1="370" x2="195" y2="600" class="line-rs232" marker-end="url(#arrow)"/>
  <line x1="485" y1="360" x2="352" y2="370" class="line-rs485" marker-end="url(#arrow)"/>
  <line x1="352" y1="370" x2="167" y2="370" class="line-rs485" marker-end="url(#arrow)"/>
  <line x1="352" y1="370" x2="410" y2="595" class="line-rs485" marker-end="url(#arrow)"/>
</svg>
